<?xml version="1.0" standalone="no"?>
<!DOCTYPE svg PUBLIC "-//W3C//DTD SVG 20010904//EN"
 "http://www.w3.org/TR/2001/REC-SVG-20010904/DTD/svg10.dtd">
<svg version="1.0" xmlns="http://www.w3.org/2000/svg"
 width="260.000000pt" height="260.000000pt" viewBox="0 0 260.000000 260.000000"
 preserveAspectRatio="xMidYMid meet">
<metadata>
Created by potrace 1.11, written by Peter Selinger 2001-2013
</metadata>
<g transform="translate(0.000000,260.000000) scale(0.100000,-0.100000)"
fill="#000000" stroke="none">
<path d="M1350 2501 c0 -6 4 -13 10 -16 6 -3 7 1 4 9 -7 18 -14 21 -14 7z"/>
<path d="M1387 2474 c4 -11 3 -15 -5 -10 -6 3 -14 1 -18 -5 -4 -7 -3 -10 2 -6
5 3 18 -1 29 -9 10 -8 14 -14 8 -14 -7 0 -14 4 -17 8 -8 13 -66 14 -64 1 2 -6
-3 -13 -10 -14 -7 -2 -8 -1 -3 1 6 3 7 12 4 20 -3 8 0 14 6 14 6 0 11 6 11 13
0 6 -16 -6 -35 -27 -19 -22 -35 -35 -35 -28 0 6 8 16 18 21 13 8 10 10 -18 7
-19 -1 -42 1 -51 5 -10 5 -16 3 -16 -6 0 -7 6 -11 14 -8 7 3 13 0 13 -7 0 -6
-4 -8 -10 -5 -5 3 -10 0 -10 -7 -1 -7 -7 -2 -15 12 -8 14 -14 19 -15 11 0 -11
-5 -9 -22 5 -12 10 -19 14 -15 8 4 -6 -2 -19 -13 -29 -19 -17 -20 -17 -29 6
-6 14 -10 18 -11 9 -1 -8 -3 -23 -5 -32 -2 -10 1 -18 6 -18 5 0 9 4 9 9 0 4
10 8 22 7 13 0 23 4 23 11 0 6 3 15 8 19 4 4 7 2 7 -5 0 -8 6 -11 17 -7 10 4
14 4 10 0 -4 -4 -1 -14 5 -23 10 -13 10 -14 -2 -3 -16 14 -44 17 -36 3 4 -5
-2 -8 -11 -6 -27 4 -53 -13 -47 -30 4 -8 1 -15 -6 -15 -6 0 -9 3 -6 8 2 4 -2
18 -10 32 -7 14 -13 19 -14 11 0 -11 -3 -11 -17 0 -16 13 -17 12 -4 -3 7 -10
17 -16 20 -13 4 2 8 -2 8 -9 0 -7 -6 -13 -13 -13 -7 0 -11 4 -9 8 3 4 -2 10
-10 13 -12 4 -14 0 -11 -18 3 -17 0 -22 -15 -21 -10 1 -22 5 -26 10 -5 4 -3 5
4 1 14 -7 28 10 14 18 -5 3 -14 -1 -21 -9 -7 -8 -15 -13 -19 -11 -3 2 -14 -2
-24 -9 -16 -11 -16 -13 -2 -19 11 -4 14 -2 9 7 -4 6 -4 9 1 5 4 -4 14 -3 22 3
7 6 13 8 13 5 0 -11 -22 -31 -48 -45 -12 -7 -20 -16 -17 -21 3 -5 0 -12 -6
-16 -8 -4 -9 -3 -5 5 4 6 0 14 -8 17 -9 3 -13 11 -10 16 4 6 -4 3 -17 -5 -31
-21 -40 -22 -51 -5 -7 10 -8 9 -4 -4 3 -10 1 -18 -3 -18 -5 0 -11 5 -13 12 -3
7 -7 5 -11 -6 -5 -11 -3 -15 5 -10 8 5 9 1 4 -11 -7 -18 -6 -18 14 0 11 10 20
14 20 8 0 -5 -11 -16 -25 -23 -13 -7 -22 -17 -19 -22 3 -5 2 -8 -3 -7 -20 3
-34 -2 -28 -11 3 -5 1 -10 -5 -10 -6 0 -10 6 -9 13 4 32 -1 40 -16 27 -8 -7
-15 -9 -15 -4 0 15 -34 -40 -38 -61 -4 -31 -19 -40 -38 -24 -12 9 -15 10 -10
2 4 -7 2 -13 -3 -13 -6 0 -11 -5 -11 -11 0 -8 4 -8 14 0 10 8 16 9 21 1 4 -6
1 -9 -6 -8 -6 2 -14 -3 -17 -11 -3 -9 0 -11 8 -6 9 5 11 4 6 -4 -4 -6 -12 -8
-18 -5 -8 5 -9 1 -5 -10 5 -11 3 -15 -5 -10 -7 5 -9 2 -5 -9 4 -10 2 -14 -6
-11 -7 2 -14 14 -14 27 -2 15 0 18 6 9 7 -11 10 -10 14 3 4 9 3 14 -3 10 -7
-4 -8 5 -5 26 3 19 3 31 0 27 -6 -6 -12 -29 -14 -53 -1 -5 -6 -3 -11 5 -13 20
-13 4 0 -21 8 -14 7 -19 -2 -21 -14 -1 -28 -4 -40 -8 -5 -1 -12 -3 -17 -4 -28
-4 -15 -12 18 -11 22 0 37 3 34 8 -2 4 -2 7 1 7 3 0 10 -9 16 -21 11 -19 10
-20 -9 -9 -23 12 -28 1 -9 -19 9 -10 10 -12 1 -7 -14 8 -36 -27 -25 -39 4 -5
1 -5 -6 -1 -7 4 -10 12 -7 17 4 5 -1 9 -9 9 -10 0 -13 6 -10 18 5 16 5 16 -6
-1 -6 -9 -17 -14 -23 -11 -8 5 -8 3 0 -7 16 -16 17 -33 3 -24 -6 4 -10 3 -9
-2 3 -20 -2 -27 -11 -13 -5 8 -13 11 -17 6 -4 -5 -2 -11 5 -13 6 -3 12 -12 12
-20 0 -9 3 -13 7 -9 5 4 8 11 8 14 0 4 7 17 16 30 14 19 17 20 23 7 3 -9 2
-14 -3 -11 -5 3 -15 -2 -22 -11 -12 -14 -11 -15 11 -9 22 7 21 5 -6 -12 -37
-24 -51 -42 -32 -42 8 0 6 -5 -4 -11 -10 -5 -18 -17 -18 -24 0 -8 -4 -15 -8
-15 -5 0 -9 7 -9 15 0 8 4 15 9 15 5 0 7 4 3 9 -3 5 1 16 9 24 13 12 10 14
-17 14 -18 0 -24 -2 -15 -4 10 -3 18 -9 18 -15 0 -5 -7 -7 -16 -4 -8 3 -12 2
-9 -4 3 -6 1 -10 -6 -10 -7 0 -4 -7 7 -15 17 -13 17 -14 2 -15 -9 0 -20 -5
-24 -11 -4 -8 1 -9 16 -4 17 5 21 4 15 -6 -6 -8 -4 -11 7 -7 8 4 15 1 15 -6 0
-6 -8 -12 -18 -12 -10 0 -16 3 -14 6 2 4 -2 7 -9 7 -8 0 -12 -7 -8 -15 4 -11
1 -13 -8 -7 -9 5 -11 4 -6 -3 4 -7 0 -12 -10 -12 -10 0 -15 -3 -11 -6 3 -4 14
-3 24 1 10 5 27 9 38 11 11 1 14 0 7 -3 -10 -4 -10 -8 0 -21 9 -12 6 -11 -10
2 -23 20 -31 9 -9 -13 10 -11 8 -11 -10 -2 -19 10 -23 9 -23 -4 0 -9 4 -14 9
-10 5 3 12 1 15 -4 7 -11 -13 -9 -31 2 -9 6 -11 3 -6 -10 6 -16 5 -16 -10 -4
-9 7 -15 17 -12 20 2 4 -2 8 -10 8 -10 0 -12 -4 -5 -12 5 -7 6 -15 2 -19 -4
-4 -2 -6 3 -4 6 2 10 -2 10 -7 0 -5 -3 -9 -7 -8 -4 2 -5 -4 -1 -13 4 -11 8
-12 13 -4 4 7 10 8 13 3 7 -11 -7 -35 -19 -34 -12 1 -12 -21 0 -37 7 -10 5
-16 -4 -22 -8 -5 -11 -12 -7 -17 5 -4 12 -1 18 7 7 11 9 6 7 -17 -1 -17 -6
-29 -10 -27 -5 3 -6 10 -3 15 4 5 1 9 -4 9 -12 0 -14 -13 -4 -24 11 -11 14
-48 3 -41 -5 3 -10 2 -10 -4 0 -5 9 -9 20 -8 22 1 25 8 9 24 -7 7 -6 12 6 17
9 3 14 2 10 -3 -10 -17 6 -40 23 -34 9 4 15 4 12 2 -3 -2 -15 -13 -28 -24 -13
-11 -22 -15 -20 -10 2 6 0 11 -5 13 -18 6 -19 1 -3 -17 17 -18 17 -20 -3 -40
-12 -12 -17 -21 -12 -21 6 0 13 5 17 11 5 8 9 8 14 -1 6 -9 13 -4 25 16 9 16
13 20 9 9 -3 -11 -7 -25 -7 -32 0 -7 -4 -10 -9 -7 -4 3 -8 -1 -8 -9 0 -8 -7
-17 -15 -21 -8 -3 -15 -10 -15 -16 0 -6 10 -2 22 9 11 11 29 19 39 18 29 -5
33 -16 5 -13 -17 2 -26 -2 -26 -11 0 -8 4 -11 10 -8 6 3 7 -1 4 -9 -3 -9 -11
-13 -18 -9 -6 3 -2 -3 8 -15 23 -26 23 -26 23 -7 0 8 -5 11 -10 8 -6 -3 -7 -1
-3 5 11 18 29 14 22 -3 -3 -9 1 -18 9 -21 8 -4 15 -10 15 -16 0 -5 -4 -6 -10
-3 -5 3 -10 0 -10 -8 0 -19 30 -17 31 2 0 11 2 12 6 3 3 -7 -1 -20 -9 -29 -11
-15 -11 -16 7 -9 15 5 17 4 8 -5 -14 -14 -36 -2 -27 14 4 7 4 9 -1 5 -4 -4
-14 -3 -22 3 -10 9 -11 15 -2 26 10 11 9 12 -5 7 -18 -7 -21 -20 -6 -29 8 -5
7 -11 0 -20 -10 -11 -8 -13 9 -10 16 3 26 -5 41 -35 19 -37 19 -40 2 -49 -9
-6 -12 -11 -5 -11 6 0 15 5 18 10 4 6 11 8 16 4 5 -3 15 -1 22 5 9 7 17 7 27
-1 12 -8 12 -9 -2 -4 -22 7 -35 -12 -14 -20 9 -3 13 -10 10 -15 -3 -5 0 -9 5
-9 6 0 11 5 11 11 0 5 5 7 11 4 6 -5 4 -12 -8 -20 -16 -12 -20 -10 -31 11 -14
27 -25 33 -15 8 3 -9 0 -20 -8 -26 -11 -8 -10 -9 3 -4 10 3 20 1 23 -5 4 -5
10 -7 15 -4 8 5 25 -24 21 -39 -1 -4 3 -14 9 -20 5 -7 6 -17 2 -22 -4 -4 1 -3
10 5 9 7 14 19 11 28 -5 12 -8 12 -15 1 -8 -10 -9 -9 -5 4 3 9 3 19 -1 22 -13
14 -10 35 5 29 12 -5 12 -7 1 -14 -13 -8 -3 -13 17 -9 6 1 7 -2 3 -5 -4 -4 -3
-16 3 -26 6 -13 6 -25 -1 -38 -7 -14 -7 -22 2 -27 7 -4 8 -3 4 4 -5 8 0 11 13
9 22 -3 41 -17 24 -17 -13 0 -11 -25 2 -37 4 -4 5 -2 1 5 -4 7 -1 12 8 12 9 0
16 -4 16 -10 0 -5 10 -8 23 -6 12 3 22 5 22 6 0 1 8 3 18 5 10 2 14 -1 10 -8
-4 -6 0 -8 10 -4 22 8 18 -13 -7 -34 -19 -16 -15 -40 7 -38 9 0 9 2 0 6 -7 2
-13 9 -13 14 0 6 5 7 12 3 6 -4 8 -3 4 4 -3 6 1 9 11 8 9 -2 19 -8 21 -14 2
-7 9 -9 14 -6 7 5 8 2 3 -6 -6 -10 -11 -10 -20 3 -10 14 -12 12 -12 -16 -1
-18 2 -25 6 -17 3 8 13 16 21 16 8 1 21 3 29 5 7 2 16 -3 18 -11 3 -11 2 -12
-5 -2 -7 10 -14 8 -33 -8 -14 -12 -18 -19 -9 -18 8 2 14 -2 13 -8 -1 -6 10 -9
28 -6 18 3 29 0 29 -7 0 -7 4 -10 9 -7 4 3 7 -5 6 -18 -2 -14 2 -23 11 -23 15
0 19 13 6 19 -4 2 0 11 11 21 17 17 18 17 15 0 -2 -12 3 -18 14 -17 10 1 15
-3 12 -8 -3 -5 -13 -7 -22 -3 -9 3 -13 3 -9 -1 4 -4 1 -14 -6 -22 -10 -13 -9
-14 2 -7 11 6 13 4 9 -7 -4 -8 0 -15 7 -15 10 0 11 5 4 19 -6 12 -6 18 1 18 5
0 10 -4 10 -10 0 -5 4 -10 10 -10 5 0 7 6 4 14 -3 8 -1 17 5 21 6 3 9 0 5 -8
-3 -8 -1 -18 5 -22 6 -3 11 -12 11 -18 0 -8 -3 -8 -9 1 -6 11 -9 9 -13 -5 -7
-25 20 -27 27 -2 3 9 13 20 21 23 8 3 13 2 10 -3 -8 -12 19 -33 30 -23 5 4 1
-3 -9 -14 -15 -19 -16 -22 -3 -27 9 -4 18 -1 22 5 5 7 2 8 -6 3 -8 -5 -11 -4
-7 3 10 16 56 -9 54 -30 -1 -9 -4 -15 -8 -12 -4 2 -10 -3 -13 -11 -4 -13 -2
-13 14 -5 12 7 21 7 25 0 3 -5 13 -10 22 -10 9 0 13 3 9 8 -4 4 -13 7 -19 7
-16 0 -15 28 1 31 7 1 8 0 2 -3 -5 -2 -10 -9 -10 -14 0 -6 4 -8 9 -4 6 3 16
-1 23 -9 11 -12 16 -12 33 2 15 13 17 14 8 2 -10 -13 -8 -18 8 -28 14 -9 19
-9 19 0 0 6 3 9 6 6 3 -4 0 -17 -7 -30 l-12 -23 23 20 23 20 -11 -22 c-10 -17
-8 -25 6 -40 9 -10 14 -14 10 -9 -15 19 -8 26 14 14 13 -7 25 -16 28 -19 10
-13 52 -31 46 -20 -9 14 -3 14 28 0 13 -6 27 -20 29 -31 3 -11 10 -17 16 -14
5 3 11 1 14 -6 2 -7 3 -5 2 5 -2 9 3 17 12 17 8 0 12 -4 9 -9 -7 -10 18 -34
26 -25 4 3 19 -1 35 -9 23 -12 32 -13 46 -3 9 7 13 17 9 21 -4 5 -2 5 4 2 6
-4 10 -19 7 -34 -3 -27 -3 -27 8 -6 14 26 16 27 48 9 15 -8 20 -16 12 -20 -6
-4 -11 -3 -11 3 0 5 -9 9 -20 8 -11 -1 -20 -5 -20 -9 0 -7 9 -10 26 -7 4 0 10
-5 14 -12 4 -6 23 -12 41 -13 18 -1 35 -8 37 -15 3 -9 0 -11 -8 -6 -9 6 -11 4
-5 -5 6 -10 11 -10 20 3 7 9 14 14 18 11 3 -3 8 4 12 15 6 20 6 20 37 1 26
-15 35 -17 47 -7 12 10 13 9 7 -2 -6 -9 -5 -12 5 -9 8 3 13 10 12 16 -2 7 4 9
14 5 12 -5 14 -3 8 8 -7 12 -6 12 7 1 13 -11 21 -11 40 -1 13 6 20 8 16 4 -4
-4 -1 -14 7 -21 18 -19 31 -18 15 1 -7 8 -9 15 -4 15 5 0 0 7 -10 15 -11 8
-15 15 -8 15 6 0 18 -10 26 -22 9 -12 16 -17 16 -10 0 8 7 9 26 2 16 -7 23 -7
19 0 -3 6 -13 10 -21 10 -8 0 -14 6 -14 13 0 8 -4 7 -10 -3 -6 -9 -10 -10 -10
-3 0 17 37 36 45 23 8 -13 25 -3 25 13 0 7 -4 6 -10 -3 -9 -14 -11 -13 -14 10
0 6 -6 14 -13 18 -9 5 -6 12 10 21 20 13 21 13 9 -1 -10 -13 -10 -17 4 -22 21
-8 24 -8 24 5 0 5 -4 8 -8 5 -5 -3 -9 8 -10 24 0 17 4 30 9 30 6 0 7 -4 4 -10
-4 -6 1 -7 11 -3 15 5 14 7 -2 17 -11 6 -23 11 -28 11 -5 0 -10 8 -12 18 -1 9
2 15 7 11 9 -5 13 9 10 34 -1 6 5 12 14 12 8 0 15 -5 15 -11 0 -5 -4 -8 -8 -5
-5 3 -8 -8 -8 -24 0 -19 4 -26 13 -23 11 4 11 8 1 21 -11 13 -10 15 3 10 13
-5 16 -2 12 13 -3 10 1 27 8 36 10 12 10 14 2 9 -9 -5 -13 0 -13 16 0 19 -2
20 -11 8 -9 -13 -10 -13 -6 0 2 8 -3 21 -12 28 -13 11 -12 11 9 0 14 -7 28
-11 32 -10 4 1 5 -6 2 -16 -5 -16 -5 -16 6 1 6 9 16 14 22 11 7 -4 8 -2 4 5
-4 6 -11 9 -15 7 -4 -3 -20 3 -35 13 -22 15 -24 19 -11 25 17 6 17 36 0 48
-15 12 7 10 25 -2 13 -9 13 -10 0 -10 -9 0 -11 -3 -5 -8 12 -9 19 -36 7 -28
-5 3 -9 -1 -9 -7 0 -7 10 -14 21 -15 15 -1 17 1 8 7 -17 10 -17 21 0 32 7 5 8
9 2 9 -15 0 -11 85 6 106 14 17 14 18 -2 6 -15 -12 -17 -11 -15 7 1 12 6 21
12 21 5 0 3 5 -5 10 -13 9 -13 10 0 10 12 0 12 2 2 9 -8 4 -13 11 -13 15 3 19
0 26 -10 26 -6 0 -7 -5 -2 -13 12 -19 11 -57 -1 -50 -6 4 -5 -1 3 -10 9 -12
10 -17 2 -17 -7 0 -9 -5 -4 -12 11 -19 13 -39 2 -32 -5 3 -7 9 -4 14 3 5 -3
13 -12 19 -10 6 -12 11 -5 11 6 0 12 5 12 11 0 5 -4 7 -10 4 -6 -3 -7 1 -4 9
3 9 11 16 16 16 6 0 5 6 -2 15 -7 8 -9 15 -4 15 5 1 -2 7 -16 16 l-25 15 25
-7 c20 -5 23 -4 13 7 -7 7 -13 20 -12 29 0 10 4 7 11 -8 6 -12 15 -22 20 -22
5 0 6 5 2 12 -5 7 -2 9 8 6 9 -4 15 0 15 8 0 17 -9 18 -25 2 -9 -9 -12 -7 -12
10 0 16 4 20 18 16 14 -5 15 -4 2 5 -8 6 -11 11 -6 11 6 0 4 6 -2 12 -10 10
-8 17 10 31 l23 19 -27 -16 c-34 -20 -44 -20 -28 -1 10 12 10 18 2 26 -7 5
-10 6 -7 3 3 -4 0 -13 -6 -20 -12 -15 -4 -48 9 -40 5 3 9 -1 9 -9 0 -22 -24
-26 -39 -7 -12 15 -11 16 5 3 19 -15 24 -2 6 16 -7 7 -8 19 -4 30 13 30 14 43
2 43 -7 0 -6 5 3 11 12 9 11 10 -6 6 -12 -2 -21 1 -21 8 0 9 7 11 21 5 12 -4
20 -12 19 -18 -1 -5 9 -14 22 -20 20 -9 23 -9 18 3 -3 8 -10 12 -16 8 -6 -4
-8 0 -4 10 3 8 0 20 -7 26 -8 6 -12 26 -10 46 1 19 -2 35 -7 35 -6 0 -8 -4 -5
-9 3 -5 -1 -14 -9 -21 -8 -7 -12 -17 -9 -22 4 -6 10 -5 15 3 6 10 8 7 6 -9 -1
-22 -17 -32 -17 -11 0 5 -4 8 -9 4 -6 -3 -8 4 -6 17 3 13 10 25 16 27 6 2 3
11 -8 24 -10 11 -12 17 -5 13 10 -6 13 -2 10 15 -2 17 3 25 16 27 11 3 16 0
11 -7 -3 -6 -12 -8 -18 -4 -8 5 -8 2 0 -9 7 -8 11 -17 8 -20 -3 -2 2 -5 10 -5
10 0 12 4 5 12 -5 7 -7 15 -3 19 4 3 8 13 9 21 2 11 -3 12 -23 4 -14 -5 -28
-7 -30 -5 -8 8 8 27 18 21 5 -4 17 -1 26 5 15 9 14 10 -7 5 l-25 -6 25 21 c21
18 21 20 4 11 -12 -6 -25 -7 -29 -3 -5 4 -5 2 -2 -4 7 -12 -21 -29 -31 -19 -3
3 0 5 7 5 8 0 11 6 7 16 -4 10 -2 13 6 8 8 -5 9 -1 4 12 -5 15 -4 16 5 7 13
-13 39 -7 39 9 0 6 -6 5 -15 -2 -15 -13 -21 -1 -7 15 4 6 3 7 -2 3 -6 -5 -17
-8 -25 -8 -12 0 -10 5 7 18 23 18 23 18 4 35 -11 10 -25 15 -33 12 -10 -4 -15
4 -15 26 -1 20 1 27 6 18 5 -7 7 -16 5 -19 -2 -3 9 -11 26 -17 17 -7 31 -8 35
-2 3 5 2 9 -3 8 -21 -4 -34 2 -27 13 4 7 3 8 -4 4 -7 -4 -12 -1 -12 8 0 8 -7
19 -16 24 -15 8 -15 10 1 16 14 5 15 9 5 21 -7 8 -16 13 -20 10 -5 -3 -6 4 -3
15 3 11 9 20 14 20 5 0 6 -8 3 -17 -4 -14 -3 -15 4 -5 5 8 12 13 16 13 16 -2
18 0 7 12 -6 8 -8 17 -4 20 3 4 -2 16 -12 27 -11 12 -14 20 -7 21 27 3 31 4
39 13 5 6 2 6 -6 1 -11 -6 -13 -4 -8 9 4 9 3 15 -1 12 -13 -8 -53 24 -46 36 4
6 10 5 15 -3 6 -10 8 -6 6 10 -2 14 -12 27 -21 31 -10 3 -18 10 -18 15 -1 22
-11 33 -24 28 -8 -3 -14 0 -14 7 0 6 5 8 10 5 6 -3 10 2 10 12 0 13 3 14 8 5
6 -9 12 -5 20 15 10 23 10 25 0 13 -14 -16 -32 -20 -43 -8 -4 3 3 9 14 13 23
7 28 21 9 23 -7 0 -21 2 -30 4 -19 3 -26 -14 -7 -21 7 -2 9 1 5 8 -5 7 -1 9
10 4 15 -6 15 -7 0 -15 -11 -6 -22 -6 -30 1 -7 6 -17 7 -22 3 -4 -4 -3 0 4 9
6 9 8 20 4 24 -4 5 -1 5 6 1 6 -4 12 -2 12 4 0 8 6 8 20 0 14 -7 20 -7 20 0 0
5 -5 10 -11 10 -5 0 -8 4 -5 9 8 12 -27 8 -37 -4 -5 -6 -7 -4 -4 5 2 8 -2 27
-9 42 -9 17 -10 29 -4 33 6 4 8 11 4 16 -3 6 -12 3 -20 -8 -11 -13 -14 -14
-12 -3 2 8 7 18 12 22 5 3 2 14 -7 23 -10 9 -15 21 -12 26 4 5 1 9 -5 9 -7 0
-9 8 -4 22 6 21 6 22 -12 8 -17 -14 -18 -14 -6 2 9 11 10 18 2 23 -5 3 -10 1
-10 -4 0 -6 -5 -11 -11 -11 -8 0 -8 4 1 14 9 12 8 17 -8 27 -20 12 -20 13 2
30 11 10 16 18 11 19 -6 0 -17 -6 -24 -12 -11 -11 -12 -10 -5 2 12 22 14 40 3
40 -6 0 -7 5 -3 11 4 7 -1 7 -16 -1 -28 -15 -57 -6 -41 14 8 10 5 16 -17 26
-15 8 -35 14 -44 13 -10 0 -15 4 -12 8 3 5 9 7 14 4 5 -3 11 -1 15 5 4 7 13 7
26 0 11 -6 17 -15 14 -19 -3 -5 2 -12 11 -15 21 -8 24 -8 24 5 0 5 -4 7 -10 4
-5 -3 -10 0 -10 8 0 7 -12 19 -26 25 -15 7 -22 17 -18 24 4 7 3 8 -4 4 -7 -4
-12 -3 -12 3 0 5 -9 12 -19 16 -13 4 -18 12 -15 23 5 14 4 15 -5 2 -8 -11 -7
-18 4 -26 12 -9 10 -13 -13 -23 -25 -10 -26 -10 -8 4 11 8 18 15 15 16 -2 0
-14 2 -27 5 -13 2 -21 1 -18 -4 2 -4 -4 -8 -15 -8 -18 0 -18 2 -5 12 9 6 12
15 8 19 -4 5 -1 5 6 1 7 -4 12 -1 12 9 0 10 -5 13 -12 9 -6 -4 -22 -8 -35 -10
-20 -2 -22 0 -12 13 15 18 0 31 -34 28 -12 -1 -26 3 -30 9 -6 7 -7 6 -4 -4 2
-8 8 -15 13 -15 5 0 15 -4 22 -8 7 -5 12 -3 12 4 0 7 2 10 5 7 8 -7 -5 -38
-16 -38 -5 0 -8 5 -6 12 1 7 -3 12 -10 13 -6 0 -15 3 -19 8 -4 4 -18 7 -30 7
-16 0 -22 5 -18 14 3 8 1 17 -5 21 -7 4 -8 0 -4 -11z m-145 -56 c-7 -7 -12 -8
-12 -2 0 14 12 26 19 19 2 -3 -1 -11 -7 -17z m129 4 c-7 -2 -18 1 -23 6 -8 8
-4 9 13 5 13 -4 18 -8 10 -11z m70 1 c13 -16 12 -17 -3 -4 -10 7 -18 15 -18
17 0 8 8 3 21 -13z m-316 -53 c3 -5 1 -10 -4 -10 -6 0 -11 5 -11 10 0 6 2 10
4 10 3 0 8 -4 11 -10z m524 -14 c10 -12 8 -13 -8 -9 -12 3 -18 9 -15 14 7 12
10 11 23 -5z m-594 -16 c3 -6 -1 -7 -9 -4 -18 7 -21 14 -7 14 6 0 13 -4 16
-10z m-50 -19 c-9 -8 -36 -10 -30 -2 2 4 11 8 20 8 8 0 13 -3 10 -6z m-129
-43 c4 -7 4 -10 -1 -6 -4 4 -16 3 -26 -2 -12 -7 -20 -6 -25 2 -4 6 -3 8 2 5 6
-3 16 -2 24 4 19 11 18 11 26 -3z m870 -54 c-4 -9 -9 -15 -11 -12 -3 3 -3 13
1 22 4 9 9 15 11 12 3 -3 3 -13 -1 -22z m-1024 -16 c-9 -9 -9 -15 1 -27 10
-14 10 -14 -4 -4 -9 7 -19 10 -22 6 -4 -3 1 -11 9 -18 15 -11 15 -12 0 -12 -9
0 -16 4 -16 9 0 5 -4 7 -9 4 -18 -11 -4 27 14 40 23 17 44 19 27 2z m-49 -88
c-10 -9 -20 -15 -23 -13 -3 3 3 10 12 17 10 7 14 17 10 21 -4 5 -1 5 6 1 11
-6 10 -12 -5 -26z m1178 -157 c13 -16 12 -17 -3 -4 -10 7 -18 15 -18 17 0 8 8
3 21 -13z m-1281 1 c0 -8 -19 -13 -24 -6 -3 5 1 9 9 9 8 0 15 -2 15 -3z m-80
-78 c0 -3 -4 -8 -10 -11 -5 -3 -10 -1 -10 4 0 6 5 11 10 11 6 0 10 -2 10 -4z
m-20 -40 c0 -3 -4 -8 -10 -11 -5 -3 -10 -1 -10 4 0 6 5 11 10 11 6 0 10 -2 10
-4z m1440 -6 c0 -5 -4 -10 -10 -10 -5 0 -10 5 -10 10 0 6 5 10 10 10 6 0 10
-4 10 -10z m32 -70 c-1 -6 7 -14 18 -17 19 -5 20 -7 5 -23 -15 -16 -14 -19 9
-38 29 -22 34 -34 12 -26 -18 7 -16 -17 3 -40 8 -9 11 -19 8 -23 -4 -3 -1 -13
5 -22 10 -12 8 -12 -8 1 -11 10 -25 14 -30 10 -5 -4 -2 0 8 9 9 9 15 19 12 22
-8 8 -44 -4 -39 -13 3 -5 2 -11 -3 -14 -5 -3 -9 2 -9 11 0 9 9 18 20 21 14 4
16 7 5 13 -11 7 -11 9 0 9 10 0 9 4 -3 16 -9 9 -14 23 -11 30 3 7 1 16 -5 19
-5 4 -7 11 -4 16 4 5 0 9 -7 9 -10 0 -9 3 2 10 12 8 12 10 -3 16 -22 8 -22 23
1 19 9 -1 16 -8 14 -15z m-59 -5 c-3 -9 -8 -14 -10 -11 -3 3 -2 9 2 15 9 16
15 13 8 -4z m47 -70 c0 -5 -5 -3 -10 5 -5 8 -10 20 -10 25 0 6 5 3 10 -5 5 -8
10 -19 10 -25z m-1547 -12 c-7 -2 -9 -12 -6 -21 4 -15 3 -15 -6 -2 -6 8 -11
11 -11 7 0 -5 -5 -5 -10 -2 -15 10 -4 20 22 22 13 0 18 -1 11 -4z m-24 -54
c-8 -5 -10 -9 -5 -9 5 0 3 -6 -3 -13 -6 -8 -8 -17 -4 -21 4 -4 13 4 20 16 7
13 12 18 13 12 0 -5 -7 -19 -15 -30 -15 -19 -15 -19 -27 1 -15 25 -19 47 -7
39 5 -3 12 2 15 10 3 9 11 13 16 10 6 -4 5 -10 -3 -15z m25 -67 c2 -4 -5 -9
-17 -9 -17 -2 -19 0 -7 7 18 12 18 12 24 2z m1 -31 c3 -5 2 -12 -3 -15 -5 -3
-9 1 -9 9 0 17 3 19 12 6z m-15 -108 c0 -5 -5 -15 -10 -23 -7 -12 -9 -10 -7 8
1 19 17 33 17 15z m1648 -12 c11 -7 10 -10 -3 -15 -20 -7 -38 1 -30 15 7 11
16 11 33 0z m-1613 -31 c3 -5 1 -10 -4 -10 -6 0 -11 5 -11 10 0 6 2 10 4 10 3
0 8 -4 11 -10z m1580 0 c3 -5 1 -10 -4 -10 -6 0 -11 5 -11 10 0 6 2 10 4 10 3
0 8 -4 11 -10z m-1540 -100 c3 -5 1 -10 -4 -10 -6 0 -11 5 -11 10 0 6 2 10 4
10 3 0 8 -4 11 -10z m1549 2 c3 -5 -1 -9 -9 -9 -8 0 -12 4 -9 9 3 4 7 8 9 8 2
0 6 -4 9 -8z m16 -31 c0 -6 -4 -12 -8 -15 -5 -3 -9 1 -9 9 0 8 4 15 9 15 4 0
8 -4 8 -9z m-22 -56 c-3 -3 -9 2 -12 12 -6 14 -5 15 5 6 7 -7 10 -15 7 -18z
m-1518 -30 c0 -12 -19 -12 -23 0 -4 9 -1 12 9 8 7 -3 14 -7 14 -8z m20 -23 c0
-13 -12 -22 -22 -16 -10 6 -1 24 13 24 5 0 9 -4 9 -8z m1538 -77 c-3 -3 -9 2
-12 12 -6 14 -5 15 5 6 7 -7 10 -15 7 -18z m-1421 -62 c-4 -3 -3 -11 3 -17 5
-7 5 -18 1 -25 -6 -9 -11 -10 -15 -2 -4 6 -2 11 5 11 10 0 10 3 1 12 -15 15
-15 28 0 28 6 0 8 -3 5 -7z m28 -43 c-3 -5 -1 -10 4 -10 6 0 20 -9 30 -19 24
-24 5 -36 -24 -15 -14 10 -15 14 -4 14 10 1 9 3 -4 11 -15 9 -16 29 -1 29 3 0
2 -4 -1 -10z m55 -20 c0 -5 -2 -10 -4 -10 -3 0 -8 5 -11 10 -3 6 -1 10 4 10 6
0 11 -4 11 -10z m1360 -65 c0 -5 -5 -3 -10 5 -5 8 -10 20 -10 25 0 6 5 3 10
-5 5 -8 10 -19 10 -25z m-1260 -15 c0 -5 -2 -10 -4 -10 -3 0 -8 5 -11 10 -3 6
-1 10 4 10 6 0 11 -4 11 -10z m98 -65 c-3 -3 -9 2 -12 12 -6 14 -5 15 5 6 7
-7 10 -15 7 -18z m1172 5 c0 -5 -2 -10 -4 -10 -3 0 -8 5 -11 10 -3 6 -1 10 4
10 6 0 11 -4 11 -10z m-1240 -10 c13 -8 13 -10 -2 -10 -9 0 -20 5 -23 10 -8
13 5 13 25 0z m65 -20 c3 -6 -1 -7 -9 -4 -18 7 -21 14 -7 14 6 0 13 -4 16 -10z
m1190 2 c9 -6 19 -32 12 -32 -1 0 -10 9 -20 20 -16 20 -12 27 8 12z m-25 -72
c0 -5 -5 -10 -11 -10 -5 0 -7 5 -4 10 3 6 8 10 11 10 2 0 4 -4 4 -10z m-980
-40 c0 -5 -2 -10 -4 -10 -3 0 -8 5 -11 10 -3 6 -1 10 4 10 6 0 11 -4 11 -10z
m965 -60 c-3 -5 -12 -10 -18 -10 -7 0 -6 4 3 10 19 12 23 12 15 0z m29 -8 c3
-5 -1 -9 -9 -9 -8 0 -12 4 -9 9 3 4 7 8 9 8 2 0 6 -4 9 -8z m-799 -31 c3 -5 2
-12 -3 -15 -5 -3 -9 1 -9 9 0 17 3 19 12 6z m21 -51 c16 -13 17 -13 11 3 -3 9
-2 17 3 17 6 0 10 -7 10 -16 0 -8 5 -12 10 -9 6 3 10 1 10 -6 0 -8 4 -8 13 -1
9 7 17 8 27 1 13 -9 13 -10 0 -6 -8 2 -23 -3 -33 -11 -16 -14 -19 -13 -42 8
-14 13 -25 20 -25 16 0 -5 -6 -3 -13 3 -8 6 -18 7 -22 3 -5 -4 -5 -2 -2 5 9
14 30 11 53 -7z m730 -31 c3 -6 0 -17 -8 -25 -13 -13 -15 -13 -15 0 0 8 4 13
9 10 4 -3 8 -1 8 5 0 5 -6 12 -12 14 -10 4 -10 6 -1 6 6 1 15 -4 19 -10z
m-632 -11 c-3 -4 -11 -5 -19 -1 -21 7 -19 12 4 10 11 0 18 -5 15 -9z m46 -18
c0 -4 -6 -13 -14 -19 -11 -9 -15 -7 -19 8 -3 11 -3 22 0 25 7 6 33 -4 33 -14z
m33 3 c-4 -11 -3 -14 6 -9 7 5 10 2 9 -6 -2 -7 3 -12 10 -10 8 1 11 -2 6 -9
-4 -7 -2 -10 7 -7 8 3 13 11 11 17 -1 7 2 10 8 6 8 -5 7 -12 -2 -22 -11 -14
-10 -15 10 -9 13 4 22 3 22 -3 0 -19 -17 -20 -48 -1 -18 11 -32 15 -32 9 0 -5
-5 -7 -12 -3 -9 6 -9 9 0 12 10 3 10 7 2 18 -7 7 -9 18 -5 24 10 16 15 12 8
-7z m165 -58 c-3 -3 -9 2 -12 12 -6 14 -5 15 5 6 7 -7 10 -15 7 -18z m361 -1
c-28 -16 -52 -18 -26 -3 9 6 15 14 12 19 -3 4 5 6 16 3 21 -6 21 -6 -2 -19z
m-283 -48 c13 2 24 0 24 -5 0 -14 -16 -22 -24 -13 -4 4 -13 7 -18 7 -6 0 -12
6 -14 13 -1 7 0 8 2 3 3 -5 16 -7 30 -5z m-46 -6 c0 -5 -2 -10 -4 -10 -3 0 -8
5 -11 10 -3 6 -1 10 4 10 6 0 11 -4 11 -10z"/>
<path d="M1943 1735 c0 -8 4 -12 9 -9 5 3 6 10 3 15 -9 13 -12 11 -12 -6z"/>
<path d="M1950 1691 c0 -5 5 -13 10 -16 6 -3 10 -2 10 4 0 5 -4 13 -10 16 -5
3 -10 2 -10 -4z"/>
<path d="M1307 489 c7 -7 15 -10 18 -7 3 3 -2 9 -12 12 -14 6 -15 5 -6 -5z"/>
<path d="M1495 2480 c3 -5 8 -10 11 -10 2 0 4 5 4 10 0 6 -5 10 -11 10 -5 0
-7 -4 -4 -10z"/>
<path d="M1582 2419 c1 -17 4 -25 8 -18 7 10 2 49 -5 49 -2 0 -3 -14 -3 -31z"/>
<path d="M1530 2430 c-9 -6 -10 -10 -3 -10 6 0 15 5 18 10 8 12 4 12 -15 0z"/>
<path d="M1655 2399 c-3 -4 2 -6 10 -5 21 3 28 13 10 13 -9 0 -18 -4 -20 -8z"/>
<path d="M945 2380 c-3 -6 1 -7 9 -4 18 7 21 14 7 14 -6 0 -13 -4 -16 -10z"/>
<path d="M891 2316 c-1 -26 1 -27 17 -15 27 21 28 23 10 16 -11 -4 -18 0 -21
11 -3 9 -5 4 -6 -12z"/>
<path d="M1667 2319 c7 -7 15 -10 18 -7 3 3 -2 9 -12 12 -14 6 -15 5 -6 -5z"/>
<path d="M1744 2285 c-12 -8 -24 -12 -27 -9 -3 3 -8 1 -12 -5 -10 -18 18 -12
45 9 29 23 24 27 -6 5z"/>
<path d="M730 2259 c0 -5 5 -7 10 -4 6 3 10 8 10 11 0 2 -4 4 -10 4 -5 0 -10
-5 -10 -11z"/>
<path d="M745 2241 c-6 -11 9 -23 19 -14 9 9 7 23 -3 23 -6 0 -12 -4 -16 -9z"/>
<path d="M1780 2240 c0 -5 5 -10 11 -10 5 0 7 5 4 10 -3 6 -8 10 -11 10 -2 0
-4 -4 -4 -10z"/>
<path d="M1805 2220 c-3 -5 -3 -15 1 -22 5 -8 2 -9 -9 -5 -9 3 -19 2 -21 -2
-7 -11 39 -53 47 -44 13 12 7 25 -8 20 -8 -4 -17 -2 -20 3 -6 10 9 14 30 10 6
-1 4 4 -2 11 -16 16 -17 33 -1 23 7 -4 8 -3 4 4 -9 15 -13 15 -21 2z"/>
<path d="M633 2185 c0 -8 4 -15 9 -15 4 0 8 4 8 9 0 6 -4 12 -8 15 -5 3 -9 -1
-9 -9z"/>
<path d="M1830 2129 c0 -5 5 -7 10 -4 6 3 10 8 10 11 0 2 -4 4 -10 4 -5 0 -10
-5 -10 -11z"/>
<path d="M1854 2116 c-3 -8 -13 -12 -22 -10 -15 5 -15 4 1 -9 19 -16 23 -32 5
-21 -6 4 1 -9 16 -28 17 -23 23 -39 17 -43 -7 -4 -6 -16 5 -36 12 -24 18 -28
29 -19 8 7 19 9 25 5 5 -3 10 -1 10 4 0 15 -23 14 -38 -1 -16 -16 -16 4 1 21
10 11 9 12 -2 6 -11 -6 -13 -4 -8 8 3 9 0 23 -8 31 -18 17 -20 30 -3 20 6 -4
8 -3 4 4 -3 5 -3 12 1 15 5 2 2 2 -4 1 -15 -4 -32 26 -26 44 3 6 10 9 15 6 7
-4 8 -2 4 4 -10 16 -15 15 -22 -2z"/>
<path d="M510 2005 c0 -9 5 -15 11 -13 6 2 11 8 11 13 0 5 -5 11 -11 13 -6 2
-11 -4 -11 -13z"/>
<path d="M430 1980 c0 -5 5 -10 11 -10 5 0 7 5 4 10 -3 6 -8 10 -11 10 -2 0
-4 -4 -4 -10z"/>
<path d="M356 1835 c-9 -26 -7 -32 5 -12 6 10 9 21 6 23 -2 3 -7 -2 -11 -11z"/>
<path d="M1955 1800 c3 -5 8 -10 11 -10 2 0 4 5 4 10 0 6 -5 10 -11 10 -5 0
-7 -4 -4 -10z"/>
<path d="M289 1643 c-13 -16 -12 -17 4 -4 9 7 17 15 17 17 0 8 -8 3 -21 -13z"/>
<path d="M286 1578 c3 -5 10 -6 15 -3 13 9 11 12 -6 12 -8 0 -12 -4 -9 -9z"/>
<path d="M2025 1560 c-3 -6 1 -7 9 -4 18 7 21 14 7 14 -6 0 -13 -4 -16 -10z"/>
<path d="M1998 1538 c8 -8 8 -15 2 -23 -7 -9 -5 -17 7 -26 14 -11 15 -12 9 0
-7 10 -3 12 15 7 l24 -7 -23 13 c-18 11 -20 16 -10 27 10 11 10 12 1 7 -7 -4
-13 -2 -13 3 0 6 -5 11 -12 11 -9 0 -9 -3 0 -12z"/>
<path d="M275 1511 c-3 -5 -2 -12 3 -15 5 -3 9 1 9 9 0 17 -3 19 -12 6z"/>
<path d="M313 1405 c0 -8 4 -12 9 -9 4 3 8 9 8 15 0 5 -4 9 -8 9 -5 0 -9 -7
-9 -15z"/>
<path d="M335 1360 c-3 -5 -1 -10 4 -10 6 0 11 5 11 10 0 6 -2 10 -4 10 -3 0
-8 -4 -11 -10z"/>
<path d="M335 1291 c-3 -5 -2 -12 3 -15 5 -3 9 1 9 9 0 17 -3 19 -12 6z"/>
<path d="M2073 1190 c-1 -11 2 -20 5 -20 4 0 8 9 9 20 1 11 -2 20 -5 20 -4 0
-8 -9 -9 -20z"/>
<path d="M410 1171 c0 -6 4 -13 10 -16 6 -3 7 1 4 9 -7 18 -14 21 -14 7z"/>
<path d="M2070 1152 c0 -15 28 -23 36 -9 4 7 4 9 -1 5 -4 -4 -14 -3 -22 3 -8
7 -13 8 -13 1z"/>
<path d="M460 1091 c0 -6 4 -13 10 -16 6 -3 7 1 4 9 -7 18 -14 21 -14 7z"/>
<path d="M514 1016 c1 -8 5 -18 8 -22 4 -3 5 1 4 10 -1 8 -5 18 -8 22 -4 3 -5
-1 -4 -10z"/>
<path d="M2095 1020 c3 -5 8 -10 11 -10 2 0 4 5 4 10 0 6 -5 10 -11 10 -5 0
-7 -4 -4 -10z"/>
<path d="M695 890 c-3 -6 -10 -8 -15 -5 -4 3 -14 -3 -21 -13 -11 -14 -11 -15
1 -5 10 10 16 9 24 -2 9 -12 14 -12 29 -1 15 11 15 15 3 25 -10 8 -16 9 -21 1z
m7 -22 c-7 -7 -12 -8 -12 -2 0 14 12 26 19 19 2 -3 -1 -11 -7 -17z"/>
<path d="M2110 780 c0 -5 5 -10 11 -10 5 0 7 5 4 10 -3 6 -8 10 -11 10 -2 0
-4 -4 -4 -10z"/>
<path d="M2110 740 c0 -5 5 -10 11 -10 5 0 7 5 4 10 -3 6 -8 10 -11 10 -2 0
-4 -4 -4 -10z"/>
<path d="M835 730 c3 -5 8 -10 11 -10 2 0 4 5 4 10 0 6 -5 10 -11 10 -5 0 -7
-4 -4 -10z"/>
<path d="M990 672 c0 -6 -3 -19 -6 -29 -4 -11 -3 -14 3 -7 4 6 14 13 22 15 10
4 10 7 -3 18 -9 8 -16 9 -16 3z"/>
<path d="M1050 620 c0 -6 7 -10 15 -10 8 0 15 2 15 4 0 2 -7 6 -15 10 -8 3
-15 1 -15 -4z"/>
<path d="M2094 575 c-3 -8 -4 -20 -2 -27 3 -7 7 -1 10 15 6 29 1 36 -8 12z"/>
<path d="M1145 562 c3 -3 0 -10 -5 -17 -7 -8 -5 -12 5 -12 8 0 12 4 9 9 -3 4
0 8 5 8 6 0 11 -5 11 -11 0 -6 5 -9 11 -7 13 4 11 24 -2 21 -5 -2 -9 1 -9 5 0
5 -7 9 -15 9 -8 0 -13 -3 -10 -5z"/>
<path d="M1350 440 c0 -5 5 -10 11 -10 5 0 7 5 4 10 -3 6 -8 10 -11 10 -2 0
-4 -4 -4 -10z"/>
<path d="M1490 376 c0 -2 8 -10 18 -17 15 -13 16 -12 3 4 -13 16 -21 21 -21
13z"/>
<path d="M1551 354 c0 -11 3 -14 6 -6 3 7 2 16 -1 19 -3 4 -6 -2 -5 -13z"/>
<path d="M1750 314 c0 -8 5 -12 10 -9 6 3 10 10 10 16 0 5 -4 9 -10 9 -5 0
-10 -7 -10 -16z"/>
<path d="M1862 314 c-12 -8 -28 -12 -35 -8 -6 4 -2 -3 11 -15 12 -12 19 -27
16 -33 -4 -7 -2 -8 4 -4 9 5 9 13 2 26 -7 13 -7 21 0 25 5 3 10 1 10 -6 0 -9
3 -9 14 0 11 10 16 9 23 -4 9 -15 11 -15 23 0 11 13 10 14 -6 8 -17 -6 -17 -5
-5 10 9 11 10 17 2 17 -6 0 -11 -5 -11 -11 0 -8 -4 -8 -13 -1 -10 9 -19 7 -35
-4z"/>
<path d="M1776 313 c-12 -12 -6 -25 9 -19 11 4 19 -3 25 -19 13 -35 21 -31 9
4 -10 29 -31 45 -43 34z"/>
<path d="M1736 278 c3 -5 10 -6 15 -3 13 9 11 12 -6 12 -8 0 -12 -4 -9 -9z"/>
</g>
</svg>
