<?xml version="1.0" encoding="UTF-8" standalone="no"?>
<!-- Created with Inkscape (http://www.inkscape.org/) -->

<svg
   width="112px"
   height="136px"
   viewBox="0 0 112 136">

  <g

     id="layer1">
    <path
       id="path23805"
       d="m 125.12443,110.65792 c -0.0507,3.4e-4 -0.10146,0 -0.1555,0 h 3.4e-4 c -0.73997,0.0507 -1.60062,0.41038 -2.58363,1.07936 -2.93417,1.99713 -2.75061,4.79372 0.46007,7.01328 1.69593,1.17232 3.9689,2.16547 4.89445,2.13877 0.15888,0 0.45974,-0.36982 0.67102,-0.81163 0.15211,-0.31438 0.19267,-0.96037 0.15549,-1.75645 0,0 0,0 0.0405,0 0.0473,0 0.071,0 0.0541,-0.0338 -0.0338,0 -0.0541,0 -0.0845,0 0,0 0,0 0,0 -0.10146,-2.2128 -0.81331,-5.61583 -1.54482,-6.63197 -0.49692,-0.69061 -1.12905,-1.03203 -1.89674,-1.02493 h -3.3e-4 z"
       style="fill:#badb26;fill-opacity:0.99607843;stroke:#ff0000;stroke-width:0.04341961;stroke-opacity:0" />
    <path
       id="path23807"
       d="m 131.68236,111.5686 v 3.4e-4 c -0.044,0 -0.0845,0 -0.12846,0 l -3.4e-4,3.3e-4 c -0.75619,0.0406 -1.31937,0.43641 -1.69154,1.19193 -0.45264,0.91878 -0.63619,3.58963 -0.52835,5.65065 0,0 -0.0338,0 -0.0338,0 -0.0338,0 -0.0338,0.0338 0.0338,0.0338 0,0 3.3e-4,-3.4e-4 0,0 0.0608,1.1091 0.20281,2.04006 0.43809,2.4119 0.25015,0.39381 0.56857,0.70582 0.70987,0.6923 0.82956,-0.0778 2.72088,-1.27069 4.07304,-2.56774 2.56029,-2.45585 2.3409,-5.11891 -0.55033,-6.67828 -0.90798,-0.48948 -1.6831,-0.73456 -2.32604,-0.73456 z"
       style="fill:#badb26;fill-opacity:0.99607843;stroke:#ff0000;stroke-width:0.04341961;stroke-opacity:0" />
    <path
       id="path23809"
       d="m 118.59454,117.80405 c -0.0473,3.4e-4 -0.0913,0 -0.13522,0 -1.8129,0.14198 -2.82025,1.45154 -2.61843,3.40506 0.36034,3.48382 3.88438,4.68656 7.61329,2.59884 0.56587,-0.31776 1.3366,-0.94009 1.71351,-1.38528 0.6558,-0.77445 0.64397,-0.84848 -0.27719,-1.72636 -1.39813,-1.33323 -4.83023,-2.89868 -6.29663,-2.89733 z"
       style="fill:#badb27;fill-opacity:1;stroke:#ff0000;stroke-width:0.04341961;stroke-opacity:0" />
    <path
       id="path23811"
       d="m 129.60715,121.68744 c -0.30761,0 -0.86234,0.19268 -1.23586,0.42525 -0.82347,0.51652 -0.91474,1.89538 -0.17241,2.62858 1.04995,1.03812 3.46557,0.23325 3.46557,-1.15305 0,-0.69365 -1.30618,-1.90078 -2.05629,-1.90078 z"
       style="fill:#aad400;fill-opacity:0.81568633;stroke:#ff0000;stroke-width:0.04341961;stroke-opacity:0" />
    <path
       id="path23813"
       d="m 136.30065,123.38506 v 8.42019 c 0,6.18475 0.098,8.50775 0.36676,8.74877 0.22649,0.20282 1.02832,0.31437 1.78857,0.32114 0.59156,0 1.15676,-0.0609 1.40353,-0.20283 0.48711,-0.27719 0.48813,-0.23662 0.44925,-8.20452 h 0.0845 c 4.14197,0.15888 3.92697,0.26367 3.51929,-1.72298 -0.41476,-2.02181 -0.3076,-2.00186 -3.62375,-2.05088 l -0.0338,-3.92259 -1.32477,-0.69501 c -0.72882,-0.38232 -1.62258,-0.69534 -1.98564,-0.69534 z"
       style="fill:#000000;fill-opacity:0.81568633;stroke:#ff0000;stroke-width:0.04341961;stroke-opacity:0" />
    <path
       id="path23815"
       d="m 86.783141,123.58721 v 8.42053 c 0,6.18475 0.09803,8.50774 0.366095,8.74843 0.226485,0.20282 1.028649,0.31437 1.788898,0.32113 0.591228,0 1.156766,-0.0609 1.403196,-0.20282 0.487109,-0.27719 0.488459,-0.23663 0.449933,-8.20486 h 0.08783 c 4.141651,0.15888 3.926655,0.26367 3.518988,-1.72298 -0.415113,-2.02181 -0.307622,-2.00186 -3.623431,-2.05088 l -0.03382,-3.92293 -1.325104,-0.69501 c -0.728815,-0.38232 -1.622249,-0.695 -1.98564,-0.695 z"
       style="fill:#000000;fill-opacity:0.81568633;stroke:#ff0000;stroke-width:0.04341961;stroke-opacity:0" />
    <path
       id="path23817"
       d="m 124.97163,126.74246 c -0.0743,0 -0.17578,0 -0.27719,0 -0.10147,0 -0.19944,0.0338 -0.27719,0.0338 -0.15212,0.0338 -0.0338,0 0.27719,0 0.30424,-0.0338 0.42661,-0.0406 0.27381,-0.0372 z"
       style="fill:#000000;fill-opacity:0.81568633;stroke:#ff0000;stroke-width:0.04341961;stroke-opacity:0" />
    <path
       id="path23819"
       d="m 128.88239,126.77694 c -0.7119,0 -1.10842,0.10479 -1.23822,0.29071 -0.43134,0.60847 -0.32114,12.35901 0.1183,12.75283 0.23663,0.20958 1.01716,0.31099 2.06204,0.26029 l 1.68208,-0.0811 v -6.56133 -4.84239 c 0.0338,0 0.0338,0 0.0338,0 -3.3e-4,0 0,0 -0.0338,-0.0338 v -1.68039 l -1.80412,-0.0811 c -0.30761,0 -0.5821,-0.0338 -0.81939,0 z"
       style="fill:#000000;fill-opacity:0.81568633;stroke:#ff0000;stroke-width:0.04341961;stroke-opacity:0" />
    <path
       id="path23821"
       d="m 121.9036,127.07914 c -2.37303,0 -5.27306,1.97009 -6.41529,4.33027 -0.51619,1.06719 -0.91912,7.35267 -0.55438,8.6531 0.1893,0.67642 0.27718,0.70245 2.09786,0.62503 l 1.89978,-0.0811 0.15211,-3.87729 c 0.13181,-3.353 0.23663,-3.97871 0.77851,-4.62673 0.65004,-0.77749 0.89613,-0.93197 2.4288,-1.53064 0.718,-0.28057 0.93771,-0.55776 1.01513,-1.28218 0.18592,-1.72568 -0.12847,-2.21685 -1.4032,-2.21009 z"
       style="fill:#000000;fill-opacity:0.81568633;stroke:#ff0000;stroke-width:0.04341961;stroke-opacity:0" />
    <path
       id="path23823"
       d="m 100.53182,127.35397 -1.832506,0.0338 -1.832496,0.0338 -0.03382,3.90704 c 0,2.14925 0.125123,4.38165 0.311003,4.96105 0.448239,1.41199 2.786441,3.62985 4.420179,4.19303 0.95767,0.33127 1.93967,0.47494 2.90206,0.46074 3.59537,-0.0541 6.91963,-2.32604 7.72958,-5.4556 0,0 3.3e-4,0 3.3e-4,0 h 0.0811 c 0,0 0,-0.0338 0,-0.0473 0.16903,-0.52733 0.24001,-2.54711 0.16226,-4.48846 l -0.1386,-3.52946 -1.83249,0.0338 -1.83251,0.0338 -0.098,3.46083 c -0.071,2.5309 -0.18255,3.60586 -0.71563,4.2772 l 3.4e-4,0.0338 c -0.76092,1.82811 -3.01429,2.66475 -5.08814,1.56816 -1.57223,-0.83124 -1.78417,-1.41909 -2.01573,-5.59352 z"
       style="fill:#000000;fill-opacity:0.81568633;stroke:#ff0000;stroke-width:0.04341961;stroke-opacity:0" />
    <path
       id="path23825"
       d="m 149.33438,127.35397 -1.47723,0.0338 -1.47756,0.0338 -0.0338,3.15018 c 0,1.73244 0.10146,3.53182 0.25015,3.99865 0.36169,1.13851 2.24661,2.92606 3.56361,3.38004 0.77205,0.26705 1.5634,0.38266 2.33919,0.37151 0.86977,0 1.71927,-0.18593 2.50084,-0.49286 -0.32114,2.09144 -0.49185,2.58835 -0.93031,3.06533 -0.61152,0.66492 -0.82887,0.7883 -2.14824,1.21828 -0.61793,0.20283 -0.82616,0.43946 -0.96137,1.10066 -0.32114,1.57526 -0.11497,2.05223 0.93501,2.14688 1.95254,0.17578 4.53008,-1.39745 5.70239,-3.48146 0.53036,-0.94211 1.48265,-6.70059 1.31157,-7.92767 0,-0.10817 -0.0338,-0.19944 -0.0507,-0.27719 0.10147,-0.61726 0.13859,-2.03634 0.0845,-3.40675 l -0.11149,-2.84493 -1.4772,0.0338 -1.47722,0.0338 -0.0812,2.7895 c -0.0575,2.04006 -0.14874,2.90645 -0.57635,3.44799 h 3.3e-4 c -0.61286,1.47519 -2.43018,2.15059 -4.1028,1.26629 -1.2673,-0.67033 -1.43801,-1.14393 -1.62496,-4.50876 z"
       style="fill:#000000;fill-opacity:0.81568633;stroke:#ff0000;stroke-width:0.04341961;stroke-opacity:0" />
    <path
       id="path23827"
       d="m 76.826562,127.36208 c -4.171395,0 -8.028069,3.00922 -8.028069,6.91728 0,2.77766 2.499109,5.868 5.38799,6.66205 1.784163,0.49049 2.854732,0.53782 3.922929,0.17578 0.758224,-0.25691 0.793714,-0.35663 0.707522,-1.98192 l -0.09128,-1.71047 -1.418067,0.0913 c -2.498778,0.15888 -4.233258,-1.08375 -4.233258,-3.03524 0,-2.77259 2.861835,-4.33298 5.402525,-2.94634 1.559374,0.85084 1.761852,1.44105 1.928518,5.61785 l 0.152118,3.82727 h 1.832842 1.832843 l 0.08451,-3.90671 c 0.04732,-2.14857 -0.05747,-4.38266 -0.233247,-4.96375 -0.426606,-1.41773 -2.729999,-3.66433 -4.354941,-4.24779 -0.952589,-0.34209 -1.931547,-0.49894 -2.893941,-0.49691 z"
       style="fill:#000000;fill-opacity:0.81568633;stroke:#ff0000;stroke-width:0.04341961;stroke-opacity:0" />
    <path
       id="path23829"
       d="m 60.038911,127.50507 c -3.491265,0 -6.760428,2.11139 -7.733637,5.08849 -0.03381,0.0879 -0.05413,0.17916 -0.08113,0.27043 h -0.08113 c 0,0 0,0.0338 -0.03381,0.0473 -0.175781,0.52531 -0.280572,2.54441 -0.233247,4.48644 l 0.08451,3.53081 h 1.832511 1.832843 l 0.152117,-3.45948 c 0.111555,-2.52954 0.240008,-3.60315 0.781545,-4.26807 v -0.0338 c 0.788639,-1.82034 3.056202,-2.62994 5.113502,-1.50698 1.559036,0.85085 1.761518,1.44106 1.928508,5.61786 l 0.152117,3.82727 h 1.832505 1.832843 l 0.08451,-3.90671 c 0.04732,-2.14857 -0.0575,-4.38266 -0.233246,-4.96409 -0.426598,-1.41739 -2.729989,-3.66433 -4.354601,-4.24745 -0.95293,-0.34213 -1.931885,-0.49898 -2.894617,-0.49695 z"
       style="fill:#000000;fill-opacity:0.81568633;stroke:#ff0000;stroke-width:0.04341961;stroke-opacity:0" />
    <path
       id="path23831"
       d="m 132.23607,128.57631 0.0947,0.0879 c 0.088,0.0845 0.12512,0.1048 0.12165,0.071 0,0 -0.0507,-0.0473 -0.10815,-0.0879 z"
       style="fill:#000000;fill-opacity:0.81568633;stroke:#ff0000;stroke-width:0.04341961;stroke-opacity:0" />
    <path
       id="path23833"
       d="m 132.47337,128.72843 0.14198,0.12845 c 0.13181,0.11832 0.1724,0.14536 0.16902,0.11156 -3.3e-4,0 -0.071,-0.0642 -0.15549,-0.12507 z"
       style="fill:#000000;fill-opacity:0.81568633;stroke:#ff0000;stroke-width:0.04341961;stroke-opacity:0" />
    <path
       id="path3092"
       style="font-style:normal;font-variant:normal;font-weight:normal;font-stretch:normal;font-size:3.56978917px;line-height:1.25;font-family:'Caviar Dreams';-inkscape-font-specification:'Caviar Dreams, Normal';font-variant-ligatures:normal;font-variant-caps:normal;font-variant-numeric:normal;font-feature-settings:normal;text-align:start;letter-spacing:0px;word-spacing:0px;writing-mode:lr-tb;text-anchor:start;fill:#000000;fill-opacity:1;stroke:none;stroke-width:0.02563093"
       d="m 83.888064,146.18692 h 0.560538 v 0.76924 q 0.1557,-0.18964 0.354991,-0.36789 1.002739,-0.89191 2.416536,-0.89191 1.420027,0 2.416537,0.89746 1.002751,0.89191 1.002751,2.16286 0,1.26538 -1.002751,2.16284 -0.99651,0.89749 -2.416537,0.89749 -1.413797,0 -2.416536,-0.89749 -0.199307,-0.17848 -0.354991,-0.36789 v 3.19968 h -0.560538 z m 0.560538,2.04577 v 1.04799 q 0.16192,0.71907 0.772292,1.26538 0.828349,0.74138 1.999248,0.74138 1.170901,0 1.999252,-0.74138 0.828346,-0.74139 0.828346,-1.78938 0,-1.04798 -0.828346,-1.78937 -0.828351,-0.74138 -1.999252,-0.74138 -1.170899,0 -1.999248,0.74138 -0.610359,0.54631 -0.772292,1.26538 z" />
    <path
       id="path3094"
       style="font-style:normal;font-variant:normal;font-weight:normal;font-stretch:normal;font-size:3.56978917px;line-height:1.25;font-family:'Caviar Dreams';-inkscape-font-specification:'Caviar Dreams, Normal';font-variant-ligatures:normal;font-variant-caps:normal;font-variant-numeric:normal;font-feature-settings:normal;text-align:start;letter-spacing:0px;word-spacing:0px;writing-mode:lr-tb;text-anchor:start;fill:#000000;fill-opacity:1;stroke:none;stroke-width:0.02563093"
       d="m 94.731326,151.73896 q -1.145975,0 -1.824863,-0.60759 -0.678848,-0.60762 -0.697536,-1.53297 v -3.41148 h 0.560529 v 3.36689 q 0,0.6968 0.566758,1.18736 0.560528,0.49611 1.388896,0.49611 0.772276,0 1.332818,-0.49056 0.566785,-0.49611 0.566785,-1.19291 v -3.36689 h 0.560528 v 3.41148 q -0.01684,0.92535 -0.697563,1.53297 -0.678847,0.60759 -1.756352,0.60759 z" />
    <path
       id="path3096"
       style="font-style:normal;font-variant:normal;font-weight:normal;font-stretch:normal;font-size:3.56978917px;line-height:1.25;font-family:'Caviar Dreams';-inkscape-font-specification:'Caviar Dreams, Normal';font-variant-ligatures:normal;font-variant-caps:normal;font-variant-numeric:normal;font-feature-settings:normal;text-align:start;letter-spacing:0px;word-spacing:0px;writing-mode:lr-tb;text-anchor:start;fill:#000000;fill-opacity:1;stroke:none;stroke-width:0.02563093"
       d="m 99.059922,146.18692 h 0.56055 v 0.99779 q 0.17442,-0.22311 0.404788,-0.42921 0.74118,-0.66337 1.51969,-0.6968 v 0.54627 q -0.5294,0.0237 -1.09616,0.52957 -0.797188,0.70795 -0.828318,1.7002 v 2.8262 h -0.56055 z" />
    <path
       id="path3098"
       style="font-style:normal;font-variant:normal;font-weight:normal;font-stretch:normal;font-size:3.56978917px;line-height:1.25;font-family:'Caviar Dreams';-inkscape-font-specification:'Caviar Dreams, Normal';font-variant-ligatures:normal;font-variant-caps:normal;font-variant-numeric:normal;font-feature-settings:normal;text-align:start;letter-spacing:0px;word-spacing:0px;writing-mode:lr-tb;text-anchor:start;fill:#000000;fill-opacity:1;stroke:none;stroke-width:0.02563093"
       d="m 103.94904,150.63523 q 0.79098,0.64663 1.88091,0.64663 1.1709,0 1.99926,-0.74138 0.10587,-0.0947 0.19944,-0.19505 l 0.59167,0.18964 q -0.16192,0.20079 -0.36744,0.38462 -1.00276,0.89749 -2.42279,0.89749 -1.41378,0 -2.41653,-0.89749 -1.00272,-0.89746 -1.00272,-2.16841 0,-1.26538 1.00272,-2.16287 1.00275,-0.89746 2.41653,-0.89746 1.21451,0 2.12382,0.65221 0.14941,0.11155 0.29882,0.24542 0.0562,0.05 0.10574,0.10039 l -0.42352,0.37904 z m 3.575,-3.90762 q -0.72871,-0.50168 -1.69409,-0.50168 -1.16467,0 -1.993,0.74138 -0.82837,0.73581 -0.82837,1.7838 0,0.86402 0.56054,1.51623 z" />
    <path
       id="path3100"
       style="font-style:normal;font-variant:normal;font-weight:normal;font-stretch:normal;font-size:3.56978917px;line-height:1.25;font-family:'Caviar Dreams';-inkscape-font-specification:'Caviar Dreams, Normal';font-variant-ligatures:normal;font-variant-caps:normal;font-variant-numeric:normal;font-feature-settings:normal;text-align:start;letter-spacing:0px;word-spacing:0px;writing-mode:lr-tb;text-anchor:start;fill:#000000;fill-opacity:1;stroke:none;stroke-width:0.02563093"
       d="m 110.12117,146.18692 h 0.56055 v 0.99779 q 0.17442,-0.22311 0.40479,-0.42921 0.74118,-0.66337 1.51973,-0.6968 v 0.54627 q -0.52941,0.0237 -1.0962,0.52957 -0.79719,0.70795 -0.82832,1.7002 v 2.8262 h -0.56055 z" />
    <path
       id="path3102"
       style="font-style:normal;font-variant:normal;font-weight:normal;font-stretch:normal;font-size:3.56978917px;line-height:1.25;font-family:'Caviar Dreams';-inkscape-font-specification:'Caviar Dreams, Normal';font-variant-ligatures:normal;font-variant-caps:normal;font-variant-numeric:normal;font-feature-settings:normal;text-align:start;letter-spacing:0px;word-spacing:0px;writing-mode:lr-tb;text-anchor:start;fill:#000000;fill-opacity:1;stroke:none;stroke-width:0.02563093"
       d="m 118.26763,142.74194 h 0.56057 v 4.21422 q 0.15583,-0.18964 0.35479,-0.36789 1.00277,-0.89749 2.41654,-0.89749 1.42003,0 2.41654,0.89749 1.00275,0.89746 1.00275,2.16841 0,1.26538 -1.00275,2.16284 -0.99651,0.89749 -2.41654,0.89749 -1.41377,0 -2.41654,-0.89749 -0.19943,-0.17848 -0.35479,-0.36789 v 1.10931 h -0.56057 z m 0.56057,5.49075 v 1.04799 q 0.16191,0.71349 0.77227,1.2598 0.82837,0.74138 1.99924,0.74138 1.17092,0 1.99926,-0.7358 0.82835,-0.74139 0.82835,-1.78938 0,-1.04798 -0.82835,-1.78937 -0.82834,-0.74138 -1.99926,-0.74138 -1.17087,0 -1.99924,0.74138 -0.61036,0.54631 -0.77227,1.26538 z" />
    <path
       id="path3104"
       style="font-style:normal;font-variant:normal;font-weight:normal;font-stretch:normal;font-size:3.56978917px;line-height:1.25;font-family:'Caviar Dreams';-inkscape-font-specification:'Caviar Dreams, Normal';font-variant-ligatures:normal;font-variant-caps:normal;font-variant-numeric:normal;font-feature-settings:normal;text-align:start;letter-spacing:0px;word-spacing:0px;writing-mode:lr-tb;text-anchor:start;fill:#000000;fill-opacity:1;stroke:none;stroke-width:0.02563093"
       d="m 129.78354,145.69078 q 1.42003,0 2.41656,0.89749 1.00273,0.89746 1.00273,2.16841 0,1.26538 -1.00273,2.16284 -0.99653,0.89749 -2.41656,0.89749 -1.41378,0 -2.4165,-0.89749 -1.00275,-0.89746 -1.00275,-2.16284 0,-1.27095 1.00275,-2.16841 1.00272,-0.89749 2.4165,-0.89749 z m 0,0.53515 q -1.17087,0 -1.99922,0.74138 -0.82837,0.74139 -0.82837,1.78937 0,1.04799 0.82837,1.78938 0.82835,0.7358 1.99922,0.7358 1.17093,0 1.99928,-0.7358 0.82834,-0.74139 0.82834,-1.78938 0,-1.04798 -0.82834,-1.78937 -0.82835,-0.74138 -1.99928,-0.74138 z" />
    <path
       id="path3106"
       style="font-style:normal;font-variant:normal;font-weight:normal;font-stretch:normal;font-size:3.56978917px;line-height:1.25;font-family:'Caviar Dreams';-inkscape-font-specification:'Caviar Dreams, Normal';font-variant-ligatures:normal;font-variant-caps:normal;font-variant-numeric:normal;font-feature-settings:normal;text-align:start;letter-spacing:0px;word-spacing:0px;writing-mode:lr-tb;text-anchor:start;fill:#000000;fill-opacity:1;stroke:none;stroke-width:0.02563093"
       d="m 141.31192,151.66094 h -0.56053 v -1.11488 q -0.16193,0.19504 -0.35481,0.37346 -1.00275,0.89749 -2.42278,0.89749 -1.41382,0 -2.41654,-0.89749 -1.00273,-0.89746 -1.00273,-2.16284 0,-1.27095 1.00273,-2.16841 1.00272,-0.89749 2.41654,-0.89749 1.42003,0 2.42278,0.89749 0.19302,0.17849 0.35481,0.37347 v -4.2198 h 0.56053 z m -0.56053,-2.40815 v -0.99221 q -0.15584,-0.73584 -0.77853,-1.29327 -0.82833,-0.74138 -1.99924,-0.74138 -1.17093,0 -1.99922,0.74138 -0.82837,0.74139 -0.82837,1.78937 0,1.04799 0.82837,1.78938 0.82829,0.7358 1.99922,0.7358 1.17091,0 1.99924,-0.74138 0.62283,-0.55743 0.77853,-1.28769 z" />
    <path
       id="path3108"
       style="font-style:normal;font-variant:normal;font-weight:normal;font-stretch:normal;font-size:3.56978917px;line-height:1.25;font-family:'Caviar Dreams';-inkscape-font-specification:'Caviar Dreams, Normal';font-variant-ligatures:normal;font-variant-caps:normal;font-variant-numeric:normal;font-feature-settings:normal;text-align:start;letter-spacing:0px;word-spacing:0px;writing-mode:lr-tb;text-anchor:start;fill:#000000;fill-opacity:1;stroke:none;stroke-width:0.02563093"
       d="m 145.37893,151.17038 -1.38265,2.58093 h -0.5481 l 1.65048,-3.09935 -2.38536,-4.46504 h 0.63524 l 2.03039,3.92432 2.03042,-3.92432 h 0.62899 l -2.65941,4.98904 z" />
  </g>
</svg>
