<svg id="svg5813" xmlns="http://www.w3.org/2000/svg" viewBox="0 0 303.75 100.27">
  <g id="layer1">
    <path id="path23805" d="M354.7,313.7h-.4c-2.1.1-4.5,1.2-7.3,3.1-8.3,5.7-7.8,13.6,1.3,19.9,4.8,3.3,11.3,6.1,13.9,6.1.5,0,1.3-1,1.9-2.3a13.31,13.31,0,0,0,.4-5h.1c.1,0,.2,0,.2-.1h-.2c-.3-6.3-2.3-15.9-4.4-18.8a6.08,6.08,0,0,0-5.5-2.9Z" transform="translate(-147.02 -313.63)" style="fill: #badb26;fill-opacity: 0.9961000084877014;stroke: red;stroke-miterlimit: 11.338600158691406;stroke-opacity: 0;stroke-width: 0.12309999763965607px"/>
    <path id="path23807" d="M373.3,316.3h-.4a5.45,5.45,0,0,0-4.8,3.4c-1.3,2.6-1.8,10.2-1.5,16h-.1c-.1,0-.1.1.1.1h0c.2,3.1.6,5.8,1.2,6.8s1.6,2,2,2c2.4-.2,7.7-3.6,11.5-7.3,7.3-7,6.6-14.5-1.6-18.9a13.28,13.28,0,0,0-6.4-2.1Z" transform="translate(-147.02 -313.63)" style="fill: #badb26;fill-opacity: 0.9961000084877014;stroke: red;stroke-miterlimit: 11.338600158691406;stroke-opacity: 0;stroke-width: 0.12309999763965607px"/>
    <path id="path23809" d="M336.2,333.9h-.4c-5.1.4-8,4.1-7.4,9.7,1,9.9,11,13.3,21.6,7.4a24,24,0,0,0,4.9-3.9c1.9-2.2,1.8-2.4-.8-4.9-4-3.8-13.8-8.3-17.9-8.3Z" transform="translate(-147.02 -313.63)" style="fill: #badb27;stroke: red;stroke-miterlimit: 11.338600158691406;stroke-opacity: 0;stroke-width: 0.12309999763965607px"/>
    <path id="path23811" d="M367.4,344.9a7.7,7.7,0,0,0-3.5,1.2c-2.3,1.5-2.6,5.4-.5,7.5,3,2.9,9.8.7,9.8-3.3,0-1.9-3.7-5.4-5.8-5.4Z" transform="translate(-147.02 -313.63)" style="fill: #aad400;fill-opacity: 0.8156999945640564;stroke: red;stroke-miterlimit: 11.338600158691406;stroke-opacity: 0;stroke-width: 0.12309999763965607px"/>
    <path id="path23813" d="M386.4,349.8v23.9c0,17.5.3,24.1,1,24.8s2.9.9,5.1.9a9.84,9.84,0,0,0,4-.6c1.4-.8,1.4-.7,1.3-23.3h.2c11.7.5,11.1.7,10-4.9s-.9-5.7-10.3-5.8l-.1-11.1-3.8-2a17.28,17.28,0,0,0-5.6-2Z" transform="translate(-147.02 -313.63)" style="fill-opacity: 0.8156999945640564;stroke: red;stroke-miterlimit: 11.338600158691406;stroke-opacity: 0;stroke-width: 0.12309999763965607px"/>
    <path id="path23815" d="M246,350.3v23.9c0,17.5.3,24.1,1,24.8s2.9.9,5.1.9a9.84,9.84,0,0,0,4-.6c1.4-.8,1.4-.7,1.3-23.3h.2c11.7.5,11.1.7,10-4.9s-.9-5.7-10.3-5.8l-.1-11.1-3.8-2a17.28,17.28,0,0,0-5.6-2Z" transform="translate(-147.02 -313.63)" style="fill-opacity: 0.8156999945640564;stroke: red;stroke-miterlimit: 11.338600158691406;stroke-opacity: 0;stroke-width: 0.12309999763965607px"/>
    <path id="path23817" d="M354.3,359.3h-.8c-.3,0-.6.1-.8.1-.4.1-.1,0,.8,0s1.2-.1.8-.1Z" transform="translate(-147.02 -313.63)" style="fill-opacity: 0.8156999945640564;stroke: red;stroke-miterlimit: 11.338600158691406;stroke-opacity: 0;stroke-width: 0.12309999763965607px"/>
    <path id="path23819" d="M365.3,359.4c-2,0-3.1.3-3.5.8-1.2,1.7-.9,35,.3,36.1.7.6,2.9.9,5.8.7l4.8-.2V364.5h.1l-.1-.1v-4.8l-5.1-.2a17.63,17.63,0,0,0-2.3,0Z" transform="translate(-147.02 -313.63)" style="fill-opacity: 0.8156999945640564;stroke: red;stroke-miterlimit: 11.338600158691406;stroke-opacity: 0;stroke-width: 0.12309999763965607px"/>
    <path id="path23821" d="M345.6,360.2c-6.7,0-14.9,5.6-18.2,12.3-1.5,3-2.6,20.8-1.6,24.5.5,1.9.8,2,5.9,1.8l5.4-.2.4-11c.4-9.5.7-11.3,2.2-13.1,1.8-2.2,2.5-2.6,6.9-4.3,2-.8,2.7-1.6,2.9-3.6.6-5-.3-6.4-3.9-6.4Z" transform="translate(-147.02 -313.63)" style="fill-opacity: 0.8156999945640564;stroke: red;stroke-miterlimit: 11.338600158691406;stroke-opacity: 0;stroke-width: 0.12309999763965607px"/>
    <path id="path23823" d="M285,361l-5.2.1-5.2.1-.1,11.1c0,6.1.4,12.4.9,14.1,1.3,4,7.9,10.3,12.5,11.9a26,26,0,0,0,8.2,1.3c10.2-.2,19.6-6.6,21.9-15.5h.2V384c.5-1.5.7-7.2.5-12.7l-.4-10-5.2.1-5.2.1-.3,9.8c-.2,7.2-.5,10.2-2,12.1v.1c-2.2,5.2-8.5,7.6-14.4,4.4-4.5-2.4-5.1-4-5.7-15.9Z" transform="translate(-147.02 -313.63)" style="fill-opacity: 0.8156999945640564;stroke: red;stroke-miterlimit: 11.338600158691406;stroke-opacity: 0;stroke-width: 0.12309999763965607px"/>
    <path id="path23825" d="M423.3,361l-4.2.1-4.2.1-.1,8.9c0,4.9.3,10,.7,11.3,1,3.2,6.4,8.3,10.1,9.6a19.06,19.06,0,0,0,6.6,1.1,18.72,18.72,0,0,0,7.1-1.4c-.9,5.9-1.4,7.3-2.6,8.7-1.7,1.9-2.3,2.2-6.1,3.5-1.8.6-2.3,1.2-2.7,3.1-.9,4.5-.3,5.8,2.7,6.1,5.5.5,12.8-4,16.2-9.9,1.5-2.7,4.2-19,3.7-22.5,0-.3-.1-.6-.1-.8a56,56,0,0,0,.2-9.7l-.3-8.1-4.2.1-4.2.1-.2,7.9c-.2,5.8-.4,8.2-1.6,9.8h0c-1.7,4.2-6.9,6.1-11.6,3.6-3.6-1.9-4.1-3.2-4.6-12.8Z" transform="translate(-147.02 -313.63)" style="fill-opacity: 0.8156999945640564;stroke: red;stroke-miterlimit: 11.338600158691406;stroke-opacity: 0;stroke-width: 0.12309999763965607px"/>
    <path id="path23827" d="M217.8,361c-11.8,0-22.8,8.5-22.8,19.6,0,7.9,7.1,16.6,15.3,18.9,5.1,1.4,8.1,1.5,11.1.5,2.1-.7,2.2-1,2-5.6l-.3-4.8-4,.3c-7.1.5-12-3.1-12-8.6,0-7.9,8.1-12.3,15.3-8.4,4.4,2.4,5,4.1,5.5,15.9l.4,10.8h10.4l.2-11.1c.1-6.1-.2-12.4-.7-14.1-1.2-4-7.7-10.4-12.3-12a25.09,25.09,0,0,0-8.1-1.4Z" transform="translate(-147.02 -313.63)" style="fill-opacity: 0.8156999945640564;stroke: red;stroke-miterlimit: 11.338600158691406;stroke-opacity: 0;stroke-width: 0.12309999763965607px"/>
    <path id="path23829" d="M170.2,361.4c-9.9,0-19.2,6-21.9,14.4a1.88,1.88,0,0,0-.2.8h-.2a.1.1,0,0,1-.1.1c-.5,1.5-.8,7.2-.7,12.7l.2,10h10.4l.4-9.8c.3-7.2.7-10.2,2.2-12.1v-.1c2.2-5.2,8.7-7.5,14.5-4.3,4.4,2.4,5,4.1,5.5,15.9l.4,10.8h10.4l.2-11.1c.1-6.1-.2-12.4-.7-14.1-1.2-4-7.7-10.4-12.3-12a28.39,28.39,0,0,0-8.1-1.2Z" transform="translate(-147.02 -313.63)" style="fill-opacity: 0.8156999945640564;stroke: red;stroke-miterlimit: 11.338600158691406;stroke-opacity: 0;stroke-width: 0.12309999763965607px"/>
    <path id="path23831" d="M374.8,364.5l.3.2c.2.2.4.3.3.2a1.24,1.24,0,0,0-.3-.2Z" transform="translate(-147.02 -313.63)" style="fill-opacity: 0.8156999945640564;stroke: red;stroke-miterlimit: 11.338600158691406;stroke-opacity: 0;stroke-width: 0.12309999763965607px"/>
    <path id="path23833" d="M375.5,364.9l.4.4c.4.3.5.4.5.3l-.4-.4Z" transform="translate(-147.02 -313.63)" style="fill-opacity: 0.8156999945640564;stroke: red;stroke-miterlimit: 11.338600158691406;stroke-opacity: 0;stroke-width: 0.12309999763965607px"/>
    <path id="path3092" d="M237.8,414.4h1.6v2.2a4.74,4.74,0,0,1,1-1,10.77,10.77,0,0,1,13.8,0,8,8,0,0,1,0,12.2,10.77,10.77,0,0,1-13.8,0,9.43,9.43,0,0,1-1-1v9.1h-1.6Zm1.6,5.8v3a6.26,6.26,0,0,0,2.2,3.6,8.79,8.79,0,0,0,11.4,0,6.44,6.44,0,0,0,2.3-5.1,6.77,6.77,0,0,0-2.3-5.1,8.79,8.79,0,0,0-11.4,0A6.26,6.26,0,0,0,239.4,420.2Z" transform="translate(-147.02 -313.63)"/>
    <path id="path3094" d="M268.5,430.1a7.74,7.74,0,0,1-5.2-1.7,5.84,5.84,0,0,1-2-4.3v-9.7h1.6v9.5a4.4,4.4,0,0,0,1.6,3.4,6,6,0,0,0,3.9,1.4,5.75,5.75,0,0,0,3.8-1.4,4.25,4.25,0,0,0,1.6-3.4v-9.5h1.6v9.7a5.5,5.5,0,0,1-2,4.3,6.52,6.52,0,0,1-4.9,1.7Z" transform="translate(-147.02 -313.63)"/>
    <path id="path3096" d="M280.8,414.4h1.6v2.8a12,12,0,0,1,1.1-1.2,6.82,6.82,0,0,1,4.3-2v1.5a4.72,4.72,0,0,0-3.1,1.5,6.16,6.16,0,0,0-2.3,4.8v8h-1.6Z" transform="translate(-147.02 -313.63)"/>
    <path id="path3098" d="M294.7,427a8.75,8.75,0,0,0,11-.3l.6-.6,1.7.5c-.3.4-.7.7-1,1.1a10.77,10.77,0,0,1-13.8,0,8,8,0,0,1,0-12.2,9.94,9.94,0,0,1,6.9-2.5,10.14,10.14,0,0,1,6,1.8,2.7,2.7,0,0,1,.8.7l.3.3-1.2,1.1Zm10.1-11.1a8.72,8.72,0,0,0-4.8-1.4,8,8,0,0,0-5.6,2.1,6.44,6.44,0,0,0-2.3,5.1,6.21,6.21,0,0,0,1.6,4.3Z" transform="translate(-147.02 -313.63)"/>
    <path id="path3100" d="M312.2,414.4h1.6v2.8a12,12,0,0,1,1.1-1.2,6.82,6.82,0,0,1,4.3-2v1.5a4.72,4.72,0,0,0-3.1,1.5,6.16,6.16,0,0,0-2.3,4.8v8h-1.6Z" transform="translate(-147.02 -313.63)"/>
    <path id="path3102" d="M335.2,404.6h1.6v11.9a4.74,4.74,0,0,1,1-1,10.77,10.77,0,0,1,13.8,0,8,8,0,0,1,0,12.2,10.77,10.77,0,0,1-13.8,0,9.43,9.43,0,0,1-1-1v3.1h-1.6Zm1.6,15.6v3a7,7,0,0,0,2.2,3.6,8.79,8.79,0,0,0,11.4,0,6.44,6.44,0,0,0,2.3-5.1,6.77,6.77,0,0,0-2.3-5.1,8.79,8.79,0,0,0-11.4,0A6.82,6.82,0,0,0,336.8,420.2Z" transform="translate(-147.02 -313.63)"/>
    <path id="path3104" d="M367.9,413a9.94,9.94,0,0,1,6.9,2.5,8,8,0,0,1,0,12.2,9.94,9.94,0,0,1-6.9,2.5,9.53,9.53,0,0,1-6.8-2.5,7.81,7.81,0,0,1-2.8-6.1,7.67,7.67,0,0,1,2.8-6.1A9.53,9.53,0,0,1,367.9,413Zm0,1.5a8.37,8.37,0,0,0-5.7,2.1,6.44,6.44,0,0,0-2.3,5.1,6.77,6.77,0,0,0,2.3,5.1,8.79,8.79,0,0,0,11.4,0,6.44,6.44,0,0,0,2.3-5.1,6.77,6.77,0,0,0-2.3-5.1A8.37,8.37,0,0,0,367.9,414.5Z" transform="translate(-147.02 -313.63)"/>
    <path id="path3106" d="M400.6,429.9H399v-3.2a10.6,10.6,0,0,1-14.8,1.1,7.81,7.81,0,0,1-2.8-6.1,7.67,7.67,0,0,1,2.8-6.1,10.77,10.77,0,0,1,13.8,0,5.24,5.24,0,0,1,1,1.1v-12h1.6Zm-1.6-6.8v-2.8a6.83,6.83,0,0,0-2.2-3.7,8.79,8.79,0,0,0-11.4,0,6.44,6.44,0,0,0-2.3,5.1,6.77,6.77,0,0,0,2.3,5.1,8.79,8.79,0,0,0,11.4,0A6.83,6.83,0,0,0,399,423.1Z" transform="translate(-147.02 -313.63)"/>
    <path id="path3108" d="M412.1,428.5l-3.9,7.3h-1.6l4.7-8.8-6.8-12.7h1.8l5.8,11.1,5.8-11.1h1.8l-7.6,14.2Z" transform="translate(-147.02 -313.63)"/>
  </g>
</svg>
